<svg width="23" height="21" viewBox="0 0 23 21" xmlns="http://www.w3.org/2000/svg">
  <path fill="#9564AA" d="M15.74.804c-1.448 0-2.381.171-3.451.692-.396.193-.767.425-1.112.696-.332-.256-.689-.477-1.068-.664C9.018.992 8.037.804 6.642.804 2.903.804.187 3.882.187 7.88c0 3.019 1.694 5.935 4.85 8.755 1.656 1.48 3.77 2.945 5.284 3.724l.867.446.867-.446c1.514-.78 3.628-2.245 5.284-3.724 3.155-2.82 4.85-5.736 4.85-8.755C22.187 3.924 19.445.819 15.74.804zM20.187 7.88c0 2.365-1.414 4.799-4.186 7.277-1.512 1.351-3.456 2.701-4.813 3.41-1.359-.708-3.302-2.058-4.813-3.41C3.6 12.68 2.187 10.245 2.187 7.88 2.187 4.926 4.071 2.792 6.642 2.792c1.11 0 1.794.131 2.581.518.465.228.876.53 1.232.907l.736.78.73-.786c.364-.392.781-.7 1.251-.929.764-.371 1.405-.489 2.567-.479 2.54.01 4.452 2.175 4.452 5.088z"/>
</svg>