<svg width="23" height="17" viewBox="0 0 23 17" xmlns="http://www.w3.org/2000/svg">
  <path fill-rule="evenodd" clip-rule="evenodd" d="M7.187 8.804a4 4 0 1 1 8 0 4 4 0 0 1-8 0Zm6 0a2 2 0 1 1-4 0 2 2 0 0 1 4 0Z" fill="#9564AA"/>
  <path fill-rule="evenodd" clip-rule="evenodd" d="M11.187.804c2.728 0 5.336 1.43 7.767 3.781.829.802 1.58 1.658 2.24 2.515.399.516.682.923.837 1.165l.344.539-.344.539c-.155.243-.438.65-.837 1.166-.66.856-1.41 1.712-2.24 2.514-2.431 2.351-5.04 3.781-7.767 3.781s-5.336-1.43-7.767-3.781c-.829-.802-1.58-1.658-2.24-2.514-.399-.517-.682-.923-.837-1.166L0 8.804l.344-.539c.155-.242.438-.649.837-1.165.66-.857 1.41-1.713 2.24-2.515C5.851 2.235 8.459.804 11.187.804Zm8.423 7.517c-.605-.784-1.293-1.568-2.048-2.297C15.47 3.999 13.293 2.804 11.187 2.804c-2.105 0-4.282 1.194-6.375 3.218-.754.729-1.442 1.513-2.048 2.297-.131.17-.252.331-.363.484.111.153.232.315.363.484.605.784 1.293 1.568 2.048 2.297 2.093 2.024 4.27 3.218 6.375 3.218 2.105 0 4.282-1.194 6.375-3.218.754-.729 1.442-1.513 2.048-2.297.131-.17.252-.331.363-.484a8.302 8.302 0 0 0-.363-.484Z" fill="#9564AA"/>
</svg>
