<svg width="23" height="18" viewBox="0 0 23 18" xmlns="http://www.w3.org/2000/svg">
  <g fill="#9564AA">
    <path d="M19.187 7c0 .552-.447 1-1 1s-1-.448-1-1 .447-1 1-1 1 .448 1 1zM6.187 10c0 2.761 2.239 5 5 5s5-2.239 5-5-2.239-5-5-5-5 2.239-5 5zm8 0c0 1.657-1.343 3-3 3s-3-1.343-3-3 1.343-3 3-3 3 1.343 3 3z"/>
    <path d="M6.124 2.845a7.162 7.162 0 01.374-.382l.084-.14c.829-1.356 1.432-1.978 2.519-1.978h4c1.087 0 1.689.622 2.518 1.978l.084.139a6.863 6.863 0 01.374.383c.297.411.513.799.737 1.154H19.187c1.657 0 3 1.343 3 3v9c0 1.657-1.343 3-3 3H3.187c-1.657 0-3-1.343-3-3V6c0-1.657 1.343-3 3-3h2.817c.223-.355.439-.742.736-1.154zM3.187 5c-.552 0-1 .448-1 1v9c0 .552.448 1 1 1h16c.552 0 1-.448 1-1V6c0-.552-.448-1-1-1h-3c-.665 0-1.113-.364-1.561-.987a13.177 13.177 0 01-.451-.657l-.073-.119c-.453-.74-.726-1.022-.813-1.022h-4c-.086 0-.36.281-.813 1.021l-.073.12c-.148.239-.298.484-.451.657C7.3 4.636 6.852 5 6.187 5H3.187z"/>
  </g>
</svg>