<svg width="23" height="22" viewBox="0 0 23 22" xmlns="http://www.w3.org/2000/svg">
  <path d="M11.187 14C8.948 14 7.187 12.427 7.187 9 7.187 6.756 8.766 5 11.187 5c2.414 0 4 1.922 4 4.2 0 3.28-1.782 4.8-4 4.8Zm-2-5c0 2.269.818 3 2 3s2-.702 2-2.8c0-1.25-.784-2.2-2-2.2-1.266 0-2 .816-2 2Z" fill="#9564AA"/>
  <path d="M11.187 22C5.112 22 .187 17.075.187 11 .187 4.925 5.112 0 11.187 0 17.262 0 22.187 4.925 22.187 11c0 6.075-4.925 11-11 11Zm7.4-5.875c1.01-1.455 1.6-3.221 1.6-5.125C20.187 6.03 16.158 2 11.187 2S2.187 6.03 2.187 11c0 1.904.591 3.67 1.6 5.125C4.913 14.638 7.558 14 11.187 14c3.63 0 6.275.638 7.4 2.125Zm-1.435 1.615c-.293-1.053-2.396-1.74-5.965-1.74-3.57 0-5.673.687-5.965 1.74C6.81 19.146 8.899 20 11.187 20s4.378-.854 5.965-2.26Z" fill="#9564AA"/>
</svg>
