<svg width="23" height="23" viewBox="0 0 23 23" xmlns="http://www.w3.org/2000/svg">
  <g fill="#9564AA" >
    <circle cx="11.187" cy="11.804" r="3" stroke-width="2" />
    <circle cx="11.187" cy="11.804" r="3" fill="white" stroke-width="2" stroke="#9564AA" />
    <path d="M17.843 20.701l2.217-2.217-.781-2.837.34-.812 2.567-1.449V10.25l-2.56-1.454-.335-.811.79-2.838-2.219-2.215-2.837.781-.811-.34L12.768.804H9.632L8.178 3.364l-.811.335-2.838-.792L2.314 5.122l.781 2.838-.34.811L.187 10.219v3.135l2.558 1.458.335.812-.79 2.838 2.216 2.216 2.838-.781.811.34 1.449 2.567h3.135l1.457-2.558.812-.335 2.838.79zm.197-7.271l-.872 2.082.655 2.381-.568.568-2.376-.662-2.083.859-1.222 2.145h-.804l-1.212-2.146-2.08-.872-2.382.656-.568-.568.662-2.376-.859-2.083L2.187 12.192v-.805l2.147-1.211.872-2.08-.655-2.382.566-.566 2.376.662 2.084-.872L10.796 2.804h.804l1.212 2.147 2.08.872 2.383-.656.568.568-.661 2.375.86 2.084 2.146 1.22v.804l-2.147 1.211z"/>
  </g>
</svg>